<mxfile host="65bd71144e" modified="2020-11-17T10:41:02.241Z" agent="5.0 (Macintosh; Intel Mac OS X 10_15_7) AppleWebKit/537.36 (KHTML, like Gecko) Code/1.51.1 Chrome/83.0.4103.122 Electron/9.3.3 Safari/537.36" version="13.6.5" etag="bkpbGSdxNvHrnbYzKRaU">
    <diagram id="OMivOFnws6Km8hS9YYEU" name="Page-1">
        <mxGraphModel dx="427" dy="489" grid="1" gridSize="10" guides="1" tooltips="1" connect="1" arrows="1" fold="1" page="1" pageScale="1" pageWidth="850" pageHeight="1100" math="0" shadow="0">
            <root>
                <mxCell id="0"/>
                <mxCell id="1" parent="0"/>
                <mxCell id="2" value="&lt;&lt;Subsystem&gt;&gt; Đặt vé xem phim" style="swimlane;startSize=120;fillColor=none;" vertex="1" parent="1">
                    <mxGeometry x="560" y="110" width="460" height="670" as="geometry"/>
                </mxCell>
                <mxCell id="3" value="" style="endArrow=none;html=1;strokeWidth=1;orthogonalLoop=0;noJump=0;snapToPoint=1;endFill=0;startArrow=box;startFill=0;endSize=12;startSize=12;jumpSize=8;sketch=0;" edge="1" parent="2">
                    <mxGeometry width="50" height="50" relative="1" as="geometry">
                        <mxPoint x="-6" y="195" as="sourcePoint"/>
                        <mxPoint x="50" y="195" as="targetPoint"/>
                    </mxGeometry>
                </mxCell>
                <mxCell id="4" value="" style="shape=module;align=left;spacingLeft=20;align=center;verticalAlign=top;" vertex="1" parent="2">
                    <mxGeometry x="380" y="10" width="60" height="30" as="geometry"/>
                </mxCell>
                <mxCell id="5" value="&lt;b&gt;Rạp&lt;/b&gt;" style="html=1;dropTarget=0;fillColor=none;" vertex="1" parent="2">
                    <mxGeometry x="130" y="160" width="130" height="70" as="geometry"/>
                </mxCell>
                <mxCell id="6" value="" style="shape=module;jettyWidth=8;jettyHeight=4;" vertex="1" parent="5">
                    <mxGeometry x="1" width="20" height="20" relative="1" as="geometry">
                        <mxPoint x="-27" y="7" as="offset"/>
                    </mxGeometry>
                </mxCell>
                <mxCell id="7" value="" style="endArrow=oval;html=1;strokeWidth=1;orthogonalLoop=0;noJump=0;snapToPoint=1;endFill=0;startArrow=box;startFill=0;endSize=12;startSize=12;exitX=0;exitY=0.5;exitDx=0;exitDy=0;jumpSize=8;sketch=0;entryX=0;entryY=0.5;entryDx=0;entryDy=0;" edge="1" parent="2" source="5">
                    <mxGeometry width="50" height="50" relative="1" as="geometry">
                        <mxPoint x="90" y="230" as="sourcePoint"/>
                        <mxPoint x="55" y="195" as="targetPoint"/>
                    </mxGeometry>
                </mxCell>
                <mxCell id="8" value="" style="endArrow=none;html=1;strokeWidth=1;orthogonalLoop=0;noJump=0;snapToPoint=1;endFill=0;startArrow=box;startFill=0;endSize=12;startSize=12;jumpSize=8;sketch=0;" edge="1" parent="2">
                    <mxGeometry width="50" height="50" relative="1" as="geometry">
                        <mxPoint x="468" y="194" as="sourcePoint"/>
                        <mxPoint x="353" y="194" as="targetPoint"/>
                    </mxGeometry>
                </mxCell>
                <mxCell id="9" value="" style="endArrow=none;html=1;strokeWidth=1;orthogonalLoop=0;noJump=0;snapToPoint=1;endFill=0;startArrow=box;startFill=0;endSize=12;startSize=12;jumpSize=8;sketch=0;" edge="1" parent="2">
                    <mxGeometry width="50" height="50" relative="1" as="geometry">
                        <mxPoint x="-6" y="485" as="sourcePoint"/>
                        <mxPoint x="50" y="485" as="targetPoint"/>
                    </mxGeometry>
                </mxCell>
                <mxCell id="10" value="&lt;b&gt;Đặt vé&lt;/b&gt;" style="html=1;dropTarget=0;fillColor=none;" vertex="1" parent="2">
                    <mxGeometry x="130" y="450" width="130" height="70" as="geometry"/>
                </mxCell>
                <mxCell id="11" value="" style="shape=module;jettyWidth=8;jettyHeight=4;" vertex="1" parent="10">
                    <mxGeometry x="1" width="20" height="20" relative="1" as="geometry">
                        <mxPoint x="-27" y="7" as="offset"/>
                    </mxGeometry>
                </mxCell>
                <mxCell id="12" value="" style="endArrow=oval;html=1;strokeWidth=1;orthogonalLoop=0;noJump=0;snapToPoint=1;endFill=0;startArrow=box;startFill=0;endSize=12;startSize=12;exitX=0;exitY=0.5;exitDx=0;exitDy=0;jumpSize=8;sketch=0;entryX=0;entryY=0.5;entryDx=0;entryDy=0;" edge="1" parent="2" source="10">
                    <mxGeometry width="50" height="50" relative="1" as="geometry">
                        <mxPoint x="-2530" y="-460" as="sourcePoint"/>
                        <mxPoint x="55" y="485" as="targetPoint"/>
                    </mxGeometry>
                </mxCell>
                <mxCell id="13" value="" style="endArrow=none;html=1;strokeWidth=1;orthogonalLoop=0;noJump=0;snapToPoint=1;endFill=0;startArrow=box;startFill=0;endSize=12;startSize=12;jumpSize=8;sketch=0;" edge="1" parent="2">
                    <mxGeometry width="50" height="50" relative="1" as="geometry">
                        <mxPoint x="468" y="484" as="sourcePoint"/>
                        <mxPoint x="353" y="484" as="targetPoint"/>
                    </mxGeometry>
                </mxCell>
                <mxCell id="14" value="" style="endArrow=none;html=1;strokeWidth=1;orthogonalLoop=0;noJump=0;snapToPoint=1;endFill=0;startArrow=oval;startFill=0;endSize=12;startSize=9;jumpSize=8;sketch=0;" edge="1" parent="2">
                    <mxGeometry width="50" height="50" relative="1" as="geometry">
                        <mxPoint x="-60" y="486" as="sourcePoint"/>
                        <mxPoint x="-6" y="486" as="targetPoint"/>
                    </mxGeometry>
                </mxCell>
                <mxCell id="15" value="" style="endArrow=none;html=1;strokeWidth=1;orthogonalLoop=0;noJump=0;snapToPoint=1;endFill=0;startArrow=box;startFill=0;endSize=12;startSize=12;jumpSize=8;sketch=0;" edge="1" parent="2">
                    <mxGeometry width="50" height="50" relative="1" as="geometry">
                        <mxPoint x="712" y="485" as="sourcePoint"/>
                        <mxPoint x="769" y="485" as="targetPoint"/>
                    </mxGeometry>
                </mxCell>
                <mxCell id="16" value="&lt;b&gt;Đơn hàng (order)&lt;br&gt;(vé đã được đặt)&lt;br&gt;&lt;/b&gt;" style="html=1;dropTarget=0;fillColor=none;" vertex="1" parent="2">
                    <mxGeometry x="830" y="450" width="130" height="70" as="geometry"/>
                </mxCell>
                <mxCell id="17" value="" style="shape=module;jettyWidth=8;jettyHeight=4;" vertex="1" parent="16">
                    <mxGeometry x="1" width="20" height="20" relative="1" as="geometry">
                        <mxPoint x="-27" y="7" as="offset"/>
                    </mxGeometry>
                </mxCell>
                <mxCell id="18" value="" style="endArrow=oval;html=1;strokeWidth=1;orthogonalLoop=0;noJump=0;snapToPoint=1;endFill=0;startArrow=box;startFill=0;endSize=12;startSize=12;exitX=0;exitY=0.5;exitDx=0;exitDy=0;jumpSize=8;sketch=0;entryX=0;entryY=0.5;entryDx=0;entryDy=0;" edge="1" parent="2" source="16">
                    <mxGeometry width="50" height="50" relative="1" as="geometry">
                        <mxPoint x="-3500" y="-950" as="sourcePoint"/>
                        <mxPoint x="774" y="485" as="targetPoint"/>
                    </mxGeometry>
                </mxCell>
                <mxCell id="19" value="" style="endArrow=none;html=1;strokeWidth=1;orthogonalLoop=0;noJump=0;snapToPoint=1;endFill=0;startArrow=oval;startFill=0;endSize=12;startSize=12;jumpSize=8;sketch=0;" edge="1" parent="2">
                    <mxGeometry width="50" height="50" relative="1" as="geometry">
                        <mxPoint x="640" y="486" as="sourcePoint"/>
                        <mxPoint x="712" y="486" as="targetPoint"/>
                    </mxGeometry>
                </mxCell>
                <mxCell id="20" value="" style="endArrow=halfCircle;html=1;strokeWidth=1;orthogonalLoop=0;noJump=0;snapToPoint=1;endFill=0;startArrow=box;startFill=0;endSize=12;startSize=12;exitX=1;exitY=0.5;exitDx=0;exitDy=0;jumpSize=8;sketch=0;" edge="1" parent="2" source="10">
                    <mxGeometry width="50" height="50" relative="1" as="geometry">
                        <mxPoint x="-1530" y="5" as="sourcePoint"/>
                        <mxPoint x="360" y="485" as="targetPoint"/>
                    </mxGeometry>
                </mxCell>
                <mxCell id="21" value="" style="endArrow=none;html=1;strokeWidth=1;orthogonalLoop=0;noJump=0;snapToPoint=1;endFill=0;startArrow=halfCircle;startFill=0;endSize=9;startSize=9;jumpSize=8;sketch=0;" edge="1" parent="2">
                    <mxGeometry width="50" height="50" relative="1" as="geometry">
                        <mxPoint x="535" y="485" as="sourcePoint"/>
                        <mxPoint x="470" y="485" as="targetPoint"/>
                    </mxGeometry>
                </mxCell>
                <mxCell id="22" value="" style="endArrow=none;html=1;strokeWidth=1;orthogonalLoop=0;noJump=0;snapToPoint=1;endFill=0;startArrow=open;startFill=0;endSize=12;startSize=12;jumpSize=8;sketch=0;dashed=1;" edge="1" parent="2">
                    <mxGeometry width="50" height="50" relative="1" as="geometry">
                        <mxPoint x="635" y="485" as="sourcePoint"/>
                        <mxPoint x="536" y="485" as="targetPoint"/>
                    </mxGeometry>
                </mxCell>
                <mxCell id="23" value="" style="endArrow=none;html=1;strokeWidth=1;orthogonalLoop=0;noJump=0;snapToPoint=1;endFill=0;startArrow=box;startFill=0;endSize=12;startSize=12;jumpSize=8;sketch=0;" edge="1" parent="2">
                    <mxGeometry width="50" height="50" relative="1" as="geometry">
                        <mxPoint x="-6" y="615" as="sourcePoint"/>
                        <mxPoint x="50" y="615" as="targetPoint"/>
                    </mxGeometry>
                </mxCell>
                <mxCell id="24" value="&lt;b&gt;Thanh toán&lt;/b&gt;" style="html=1;dropTarget=0;fillColor=none;" vertex="1" parent="2">
                    <mxGeometry x="130" y="580" width="130" height="70" as="geometry"/>
                </mxCell>
                <mxCell id="25" value="" style="shape=module;jettyWidth=8;jettyHeight=4;" vertex="1" parent="24">
                    <mxGeometry x="1" width="20" height="20" relative="1" as="geometry">
                        <mxPoint x="-27" y="7" as="offset"/>
                    </mxGeometry>
                </mxCell>
                <mxCell id="26" value="" style="endArrow=oval;html=1;strokeWidth=1;orthogonalLoop=0;noJump=0;snapToPoint=1;endFill=0;startArrow=box;startFill=0;endSize=12;startSize=12;exitX=0;exitY=0.5;exitDx=0;exitDy=0;jumpSize=8;sketch=0;entryX=0;entryY=0.5;entryDx=0;entryDy=0;" edge="1" parent="2" source="24">
                    <mxGeometry width="50" height="50" relative="1" as="geometry">
                        <mxPoint x="-3480" y="-820" as="sourcePoint"/>
                        <mxPoint x="55" y="615" as="targetPoint"/>
                    </mxGeometry>
                </mxCell>
                <mxCell id="27" value="" style="endArrow=none;html=1;strokeWidth=1;orthogonalLoop=0;noJump=0;snapToPoint=1;endFill=0;startArrow=oval;startFill=0;endSize=12;startSize=9;jumpSize=8;sketch=0;" edge="1" parent="2">
                    <mxGeometry width="50" height="50" relative="1" as="geometry">
                        <mxPoint x="-60" y="616" as="sourcePoint"/>
                        <mxPoint x="-6" y="616" as="targetPoint"/>
                    </mxGeometry>
                </mxCell>
                <mxCell id="28" value="&lt;b&gt;Mã vé &lt;br&gt;thanh toán (tichet ID)&lt;br&gt;&lt;/b&gt;" style="text;html=1;align=center;verticalAlign=middle;resizable=0;points=[];autosize=1;" vertex="1" parent="2">
                    <mxGeometry x="200" y="530" width="140" height="30" as="geometry"/>
                </mxCell>
                <mxCell id="29" value="" style="endArrow=none;html=1;strokeWidth=1;orthogonalLoop=0;noJump=0;snapToPoint=1;endFill=0;startArrow=oval;startFill=0;endSize=12;startSize=9;jumpSize=8;sketch=0;" edge="1" parent="1">
                    <mxGeometry width="50" height="50" relative="1" as="geometry">
                        <mxPoint x="500" y="306" as="sourcePoint"/>
                        <mxPoint x="554" y="306" as="targetPoint"/>
                    </mxGeometry>
                </mxCell>
                <mxCell id="30" value="&lt;&lt;Subsystem&gt;&gt;Quản lý " style="swimlane;startSize=120;fillColor=none;" vertex="1" parent="1">
                    <mxGeometry x="1280" y="110" width="360" height="720" as="geometry"/>
                </mxCell>
                <mxCell id="31" value="" style="shape=module;align=left;spacingLeft=20;align=center;verticalAlign=top;" vertex="1" parent="30">
                    <mxGeometry x="290" y="10" width="60" height="30" as="geometry"/>
                </mxCell>
                <mxCell id="32" value="" style="endArrow=none;html=1;strokeWidth=1;orthogonalLoop=0;noJump=0;snapToPoint=1;endFill=0;startArrow=box;startFill=0;endSize=12;startSize=12;jumpSize=8;sketch=0;" edge="1" parent="30">
                    <mxGeometry width="50" height="50" relative="1" as="geometry">
                        <mxPoint x="-8" y="195" as="sourcePoint"/>
                        <mxPoint x="49" y="195" as="targetPoint"/>
                    </mxGeometry>
                </mxCell>
                <mxCell id="33" value="&lt;b&gt;Rạp&lt;/b&gt;" style="html=1;dropTarget=0;fillColor=none;" vertex="1" parent="30">
                    <mxGeometry x="110" y="160" width="130" height="70" as="geometry"/>
                </mxCell>
                <mxCell id="34" value="" style="shape=module;jettyWidth=8;jettyHeight=4;" vertex="1" parent="33">
                    <mxGeometry x="1" width="20" height="20" relative="1" as="geometry">
                        <mxPoint x="-27" y="7" as="offset"/>
                    </mxGeometry>
                </mxCell>
                <mxCell id="35" value="" style="endArrow=oval;html=1;strokeWidth=1;orthogonalLoop=0;noJump=0;snapToPoint=1;endFill=0;startArrow=box;startFill=0;endSize=12;startSize=12;exitX=0;exitY=0.5;exitDx=0;exitDy=0;jumpSize=8;sketch=0;entryX=0;entryY=0.5;entryDx=0;entryDy=0;" edge="1" parent="30" source="33">
                    <mxGeometry width="50" height="50" relative="1" as="geometry">
                        <mxPoint x="-880" y="-260" as="sourcePoint"/>
                        <mxPoint x="54" y="195" as="targetPoint"/>
                    </mxGeometry>
                </mxCell>
                <mxCell id="36" value="" style="endArrow=none;html=1;strokeWidth=1;orthogonalLoop=0;noJump=0;snapToPoint=1;endFill=0;startArrow=oval;startFill=0;endSize=12;startSize=12;jumpSize=8;sketch=0;" edge="1" parent="30">
                    <mxGeometry width="50" height="50" relative="1" as="geometry">
                        <mxPoint x="-80" y="196" as="sourcePoint"/>
                        <mxPoint x="-8" y="196" as="targetPoint"/>
                    </mxGeometry>
                </mxCell>
                <mxCell id="37" value="" style="endArrow=none;html=1;strokeWidth=1;orthogonalLoop=0;noJump=0;snapToPoint=1;endFill=0;startArrow=box;startFill=0;endSize=12;startSize=12;jumpSize=8;sketch=0;" edge="1" parent="30">
                    <mxGeometry width="50" height="50" relative="1" as="geometry">
                        <mxPoint x="-726" y="345" as="sourcePoint"/>
                        <mxPoint x="-670" y="345" as="targetPoint"/>
                    </mxGeometry>
                </mxCell>
                <mxCell id="38" value="&lt;b&gt;Phim&lt;/b&gt;" style="html=1;dropTarget=0;fillColor=none;" vertex="1" parent="30">
                    <mxGeometry x="-590" y="310" width="130" height="70" as="geometry"/>
                </mxCell>
                <mxCell id="39" value="" style="shape=module;jettyWidth=8;jettyHeight=4;" vertex="1" parent="38">
                    <mxGeometry x="1" width="20" height="20" relative="1" as="geometry">
                        <mxPoint x="-27" y="7" as="offset"/>
                    </mxGeometry>
                </mxCell>
                <mxCell id="40" value="" style="endArrow=oval;html=1;strokeWidth=1;orthogonalLoop=0;noJump=0;snapToPoint=1;endFill=0;startArrow=box;startFill=0;endSize=12;startSize=12;exitX=0;exitY=0.5;exitDx=0;exitDy=0;jumpSize=8;sketch=0;entryX=0;entryY=0.5;entryDx=0;entryDy=0;" edge="1" parent="30" source="38">
                    <mxGeometry width="50" height="50" relative="1" as="geometry">
                        <mxPoint x="-1580" y="-110" as="sourcePoint"/>
                        <mxPoint x="-665" y="345" as="targetPoint"/>
                    </mxGeometry>
                </mxCell>
                <mxCell id="41" value="" style="endArrow=none;html=1;strokeWidth=1;orthogonalLoop=0;noJump=0;snapToPoint=1;endFill=0;startArrow=box;startFill=0;endSize=12;startSize=12;jumpSize=8;sketch=0;" edge="1" parent="30">
                    <mxGeometry width="50" height="50" relative="1" as="geometry">
                        <mxPoint x="-252" y="344" as="sourcePoint"/>
                        <mxPoint x="-367" y="344" as="targetPoint"/>
                    </mxGeometry>
                </mxCell>
                <mxCell id="42" value="" style="endArrow=none;html=1;strokeWidth=1;orthogonalLoop=0;noJump=0;snapToPoint=1;endFill=0;startArrow=oval;startFill=0;endSize=12;startSize=9;jumpSize=8;sketch=0;" edge="1" parent="30">
                    <mxGeometry width="50" height="50" relative="1" as="geometry">
                        <mxPoint x="-780" y="346" as="sourcePoint"/>
                        <mxPoint x="-726" y="346" as="targetPoint"/>
                    </mxGeometry>
                </mxCell>
                <mxCell id="43" value="" style="endArrow=none;html=1;strokeWidth=1;orthogonalLoop=0;noJump=0;snapToPoint=1;endFill=0;startArrow=box;startFill=0;endSize=12;startSize=12;jumpSize=8;sketch=0;" edge="1" parent="30">
                    <mxGeometry width="50" height="50" relative="1" as="geometry">
                        <mxPoint x="-8" y="345" as="sourcePoint"/>
                        <mxPoint x="49" y="345" as="targetPoint"/>
                    </mxGeometry>
                </mxCell>
                <mxCell id="44" value="&lt;b&gt;Phim&lt;/b&gt;" style="html=1;dropTarget=0;fillColor=none;" vertex="1" parent="30">
                    <mxGeometry x="110" y="310" width="130" height="70" as="geometry"/>
                </mxCell>
                <mxCell id="45" value="" style="shape=module;jettyWidth=8;jettyHeight=4;" vertex="1" parent="44">
                    <mxGeometry x="1" width="20" height="20" relative="1" as="geometry">
                        <mxPoint x="-27" y="7" as="offset"/>
                    </mxGeometry>
                </mxCell>
                <mxCell id="46" value="" style="endArrow=oval;html=1;strokeWidth=1;orthogonalLoop=0;noJump=0;snapToPoint=1;endFill=0;startArrow=box;startFill=0;endSize=12;startSize=12;exitX=0;exitY=0.5;exitDx=0;exitDy=0;jumpSize=8;sketch=0;entryX=0;entryY=0.5;entryDx=0;entryDy=0;" edge="1" parent="30" source="44">
                    <mxGeometry width="50" height="50" relative="1" as="geometry">
                        <mxPoint x="-2550" y="-600" as="sourcePoint"/>
                        <mxPoint x="54" y="345" as="targetPoint"/>
                    </mxGeometry>
                </mxCell>
                <mxCell id="47" value="" style="endArrow=none;html=1;strokeWidth=1;orthogonalLoop=0;noJump=0;snapToPoint=1;endFill=0;startArrow=oval;startFill=0;endSize=12;startSize=12;jumpSize=8;sketch=0;" edge="1" parent="30">
                    <mxGeometry width="50" height="50" relative="1" as="geometry">
                        <mxPoint x="-80" y="346" as="sourcePoint"/>
                        <mxPoint x="-8" y="346" as="targetPoint"/>
                    </mxGeometry>
                </mxCell>
                <mxCell id="48" value="" style="endArrow=halfCircle;html=1;strokeWidth=1;orthogonalLoop=0;noJump=0;snapToPoint=1;endFill=0;startArrow=box;startFill=0;endSize=12;startSize=12;exitX=1;exitY=0.5;exitDx=0;exitDy=0;jumpSize=8;sketch=0;" edge="1" parent="30" source="38">
                    <mxGeometry width="50" height="50" relative="1" as="geometry">
                        <mxPoint x="-580" y="355" as="sourcePoint"/>
                        <mxPoint x="-360" y="345" as="targetPoint"/>
                    </mxGeometry>
                </mxCell>
                <mxCell id="49" value="" style="endArrow=none;html=1;strokeWidth=1;orthogonalLoop=0;noJump=0;snapToPoint=1;endFill=0;startArrow=halfCircle;startFill=0;endSize=9;startSize=9;jumpSize=8;sketch=0;" edge="1" parent="30">
                    <mxGeometry width="50" height="50" relative="1" as="geometry">
                        <mxPoint x="-185" y="345" as="sourcePoint"/>
                        <mxPoint x="-250" y="345" as="targetPoint"/>
                    </mxGeometry>
                </mxCell>
                <mxCell id="50" value="" style="endArrow=none;html=1;strokeWidth=1;orthogonalLoop=0;noJump=0;snapToPoint=1;endFill=0;startArrow=openThin;startFill=0;endSize=12;startSize=12;jumpSize=8;sketch=0;dashed=1;" edge="1" parent="30">
                    <mxGeometry width="50" height="50" relative="1" as="geometry">
                        <mxPoint x="-85" y="345" as="sourcePoint"/>
                        <mxPoint x="-184" y="345" as="targetPoint"/>
                    </mxGeometry>
                </mxCell>
                <mxCell id="51" value="&lt;b&gt;Thống kê&lt;/b&gt;" style="html=1;dropTarget=0;fillColor=none;" vertex="1" parent="30">
                    <mxGeometry x="110" y="580" width="130" height="70" as="geometry"/>
                </mxCell>
                <mxCell id="52" value="" style="shape=module;jettyWidth=8;jettyHeight=4;" vertex="1" parent="51">
                    <mxGeometry x="1" width="20" height="20" relative="1" as="geometry">
                        <mxPoint x="-27" y="7" as="offset"/>
                    </mxGeometry>
                </mxCell>
                <mxCell id="53" value="" style="rounded=0;orthogonalLoop=1;jettySize=auto;html=1;endArrow=none;endFill=0;dashed=1;strokeColor=#000000;strokeWidth=1;exitX=0.5;exitY=0;exitDx=0;exitDy=0;startArrow=box;startFill=0;" edge="1" parent="30" source="51">
                    <mxGeometry relative="1" as="geometry">
                        <mxPoint x="510" y="385" as="sourcePoint"/>
                        <mxPoint x="175" y="559.9999999999998" as="targetPoint"/>
                    </mxGeometry>
                </mxCell>
                <mxCell id="54" value="" style="rounded=0;orthogonalLoop=1;jettySize=auto;html=1;endArrow=halfCircle;endFill=0;endSize=6;strokeWidth=1;dashed=1;exitX=0.5;exitY=1;exitDx=0;exitDy=0;startArrow=box;startFill=0;" edge="1" parent="30">
                    <mxGeometry relative="1" as="geometry">
                        <mxPoint x="175" y="519.9999999999998" as="sourcePoint"/>
                        <mxPoint x="175" y="559.9999999999998" as="targetPoint"/>
                    </mxGeometry>
                </mxCell>
                <mxCell id="55" value="" style="endArrow=halfCircle;html=1;strokeWidth=1;orthogonalLoop=0;noJump=0;snapToPoint=1;endFill=0;startArrow=box;startFill=0;endSize=12;startSize=12;exitX=1;exitY=0.5;exitDx=0;exitDy=0;jumpSize=8;sketch=0;" edge="1" parent="1" source="5">
                    <mxGeometry width="50" height="50" relative="1" as="geometry">
                        <mxPoint x="700" y="315" as="sourcePoint"/>
                        <mxPoint x="920" y="305" as="targetPoint"/>
                    </mxGeometry>
                </mxCell>
                <mxCell id="56" value="" style="endArrow=none;html=1;strokeWidth=1;orthogonalLoop=0;noJump=0;snapToPoint=1;endFill=0;startArrow=halfCircle;startFill=0;endSize=9;startSize=9;jumpSize=8;sketch=0;" edge="1" parent="1">
                    <mxGeometry width="50" height="50" relative="1" as="geometry">
                        <mxPoint x="1095" y="305" as="sourcePoint"/>
                        <mxPoint x="1030" y="305" as="targetPoint"/>
                    </mxGeometry>
                </mxCell>
                <mxCell id="57" value="" style="endArrow=none;html=1;strokeWidth=1;orthogonalLoop=0;noJump=0;snapToPoint=1;endFill=0;startArrow=open;startFill=0;endSize=12;startSize=12;jumpSize=8;sketch=0;dashed=1;" edge="1" parent="1">
                    <mxGeometry width="50" height="50" relative="1" as="geometry">
                        <mxPoint x="1195" y="305" as="sourcePoint"/>
                        <mxPoint x="1096" y="305" as="targetPoint"/>
                    </mxGeometry>
                </mxCell>
                <mxCell id="58" value="" style="rounded=0;orthogonalLoop=1;jettySize=auto;html=1;endArrow=none;endFill=0;dashed=1;strokeColor=#000000;strokeWidth=1;exitX=0.5;exitY=0;exitDx=0;exitDy=0;startArrow=box;startFill=0;" edge="1" parent="1" source="24">
                    <mxGeometry relative="1" as="geometry">
                        <mxPoint x="1090" y="495" as="sourcePoint"/>
                        <mxPoint x="755" y="670" as="targetPoint"/>
                    </mxGeometry>
                </mxCell>
                <mxCell id="59" value="" style="rounded=0;orthogonalLoop=1;jettySize=auto;html=1;endArrow=halfCircle;endFill=0;endSize=6;strokeWidth=1;dashed=1;exitX=0.5;exitY=1;exitDx=0;exitDy=0;startArrow=box;startFill=0;" edge="1" parent="1" source="10">
                    <mxGeometry relative="1" as="geometry">
                        <mxPoint x="1130" y="495" as="sourcePoint"/>
                        <mxPoint x="755" y="670" as="targetPoint"/>
                    </mxGeometry>
                </mxCell>
                <mxCell id="60" value="&lt;b&gt;Khách hàng Thanh toán&lt;/b&gt;" style="text;html=1;align=center;verticalAlign=middle;resizable=0;points=[];autosize=1;" vertex="1" parent="1">
                    <mxGeometry x="400" y="690" width="150" height="20" as="geometry"/>
                </mxCell>
                <mxCell id="61" value="&lt;b&gt;Khách hàng đặt vé&lt;/b&gt;" style="text;html=1;align=center;verticalAlign=middle;resizable=0;points=[];autosize=1;" vertex="1" parent="1">
                    <mxGeometry x="415" y="560" width="120" height="20" as="geometry"/>
                </mxCell>
                <mxCell id="62" value="&lt;b&gt;Khách hàng xem lịch chiếu&lt;/b&gt;" style="text;html=1;align=center;verticalAlign=middle;resizable=0;points=[];autosize=1;" vertex="1" parent="1">
                    <mxGeometry x="375" y="270" width="170" height="20" as="geometry"/>
                </mxCell>
                <mxCell id="63" value="&lt;b&gt;Khách hàng xem thông tin phim&lt;/b&gt;" style="text;html=1;align=center;verticalAlign=middle;resizable=0;points=[];autosize=1;" vertex="1" parent="1">
                    <mxGeometry x="350" y="420" width="200" height="20" as="geometry"/>
                </mxCell>
                <mxCell id="64" value="&lt;b&gt;Quản lý &lt;br&gt;lịch chiếu&lt;/b&gt;" style="text;html=1;align=center;verticalAlign=middle;resizable=0;points=[];autosize=1;" vertex="1" parent="1">
                    <mxGeometry x="1170" y="260" width="70" height="30" as="geometry"/>
                </mxCell>
                <mxCell id="65" value="&lt;b&gt;Quản lý&lt;br&gt;nội dung phim&lt;/b&gt;" style="text;html=1;align=center;verticalAlign=middle;resizable=0;points=[];autosize=1;" vertex="1" parent="1">
                    <mxGeometry x="1155" y="400" width="100" height="30" as="geometry"/>
                </mxCell>
                <mxCell id="66" value="&lt;b&gt;Quản lý&amp;nbsp;&lt;br&gt;vé đã đặt&lt;br&gt;&lt;/b&gt;" style="text;html=1;align=center;verticalAlign=middle;resizable=0;points=[];autosize=1;" vertex="1" parent="1">
                    <mxGeometry x="1170" y="550" width="70" height="30" as="geometry"/>
                </mxCell>
                <mxCell id="67" value="" style="endArrow=none;html=1;strokeWidth=1;orthogonalLoop=0;noJump=0;snapToPoint=1;endFill=0;startArrow=box;startFill=0;endSize=12;startSize=12;jumpSize=8;sketch=0;" edge="1" parent="1">
                    <mxGeometry width="50" height="50" relative="1" as="geometry">
                        <mxPoint x="1272" y="729.9999999999998" as="sourcePoint"/>
                        <mxPoint x="1329" y="729.9999999999998" as="targetPoint"/>
                    </mxGeometry>
                </mxCell>
                <mxCell id="68" value="" style="endArrow=oval;html=1;strokeWidth=1;orthogonalLoop=0;noJump=0;snapToPoint=1;endFill=0;startArrow=box;startFill=0;endSize=12;startSize=12;exitX=0;exitY=0.5;exitDx=0;exitDy=0;jumpSize=8;sketch=0;entryX=0;entryY=0.5;entryDx=0;entryDy=0;" edge="1" parent="1">
                    <mxGeometry width="50" height="50" relative="1" as="geometry">
                        <mxPoint x="1390" y="729.9999999999998" as="sourcePoint"/>
                        <mxPoint x="1334" y="729.9999999999998" as="targetPoint"/>
                    </mxGeometry>
                </mxCell>
                <mxCell id="69" value="" style="endArrow=none;html=1;strokeWidth=1;orthogonalLoop=0;noJump=0;snapToPoint=1;endFill=0;startArrow=oval;startFill=0;endSize=12;startSize=12;jumpSize=8;sketch=0;" edge="1" parent="1">
                    <mxGeometry width="50" height="50" relative="1" as="geometry">
                        <mxPoint x="1200" y="731" as="sourcePoint"/>
                        <mxPoint x="1272" y="731" as="targetPoint"/>
                    </mxGeometry>
                </mxCell>
                <mxCell id="70" value="&lt;b&gt;Thống kê&lt;br&gt;doanh thu&lt;br&gt;&lt;/b&gt;" style="text;html=1;align=center;verticalAlign=middle;resizable=0;points=[];autosize=1;" vertex="1" parent="1">
                    <mxGeometry x="1170" y="690" width="70" height="30" as="geometry"/>
                </mxCell>
            </root>
        </mxGraphModel>
    </diagram>
</mxfile>